<svg xmlns="http://www.w3.org/2000/svg" width="942" height="2500" viewBox="779 -779 942 2500"><path fill="none" d="M1715.9 1716.5V-771.2H784.1v2487.6"/><path fill="none" d="M784.1 1716.5V-771.2h931.8v2487.6"/><path fill="none" d="M784.1 1716.5V-771.2h931.8v2487.6"/><path fill="none" d="M779 1721V-771.2h936.9V1721"/><path fill="#26559A" d="M784.1 1716.5V-779H1721v2495.5"/><path fill="none" d="M779 1721V-771.2h936.9V1721"/><path fill="#FFF" d="M1248.8 402.9c0 16.7 5.5 28.8 11.1 41h126.3c1.1-11.7 1.1-18.4 1.1-29.6 0-40.2-18.4-45.7-44-45.7h-60.4c-18.9.1-34.1 6.4-34.1 34.3m-6.9 266.8c0 27.9 15.3 34.2 34.2 34.2h10.6v-68.4h-10.6c-18.9 0-34.2 6.3-34.2 34.2m131.5 516.8c15 0 22.7-7.1 22.7-22.7 0-16.8-5.4-26.7-11.1-38.9h-29.9v36.6c0 17.4 3.2 25 18.3 25M1248.8 143.3c0 27.9 15.2 37.6 34.1 37.6h69.1c19 0 34.2-9.7 34.2-37.6 0-27.8-15.3-37.6-34.2-37.6h-69.1c-18.9.1-34.1 9.8-34.1 37.6m202.1 1180v82h-198.4v41h-68.4v-41h-41c-55.8 0-88.9-23.2-88.9-88.9v-54.8h68.4v34.2c0 25.6 9.6 27.3 27.4 27.3l34.2.1v-62l68.4 7.3v54.8h198.3zm.5-280.5v68.4l-17.3 2.9c17.3 31.2 20.1 59.1 20.1 77.5 0 50.2-33.5 76.9-79.7 76.9-54.6 0-74.1-31.1-74.1-86.9v-56.7h-11.8c-27.9 0-36.1 3.2-36.1 46.1v70.2l-68.4-6.9v-76.7c0-94.2 29.7-114.8 105-114.8h162.3zm-193.8-232.6c-7.3 42.6-8.9 54.8-8.9 75.3 0 36.8 8.1 47.9 39.3 47.9h59c31.2 0 39.3-11.1 39.3-47.9 0-20.5-1.6-32.7-8.9-75.3h66.7c8.4 37.3 10.6 61.6 10.6 82.1 0 88.1-46.3 123.1-113.1 123.1h-47.9c-66.9 0-113.3-35-113.3-123.1 0-20.5 2.2-44.8 10.6-82.1h66.6zm83.9-256.8v150.5h5.5c31.2 0 39.3-11.1 39.3-47.9 0-33.1-1.6-53.2-8.9-95.7h66.7c8.4 41 10.6 62.3 10.6 102.5 0 88.1-46.3 123.2-113.1 123.2h-54.8c-58.5 0-106.4-26-106.4-116.3s47.4-116.3 106.4-116.3h54.7zm1.2-266.8c64.6 0 111.7 18.5 111.7 130.5 0 40.4-3.6 64.2-10.4 108.8h-369.3l-13.7-82h129.2c-6.6-17.7-9.9-40.7-9.9-61.6 0-82.1 36.7-95.7 95.8-95.7h66.6zm1.4-263c55.7 0 109.8 23 109.8 119.5S1399.8 263 1344.1 263h-53.8c-55.8 0-109.8-23.5-109.8-119.9s54.1-119.5 109.8-119.5h53.8zm0-262.8c55.7 0 109.8 23.1 109.8 119.4 0 96.5-54.1 119.9-109.8 119.9h-53.8c-55.8 0-109.8-23.5-109.8-119.9s54.1-119.4 109.8-119.4h53.8zm106.8-269.7v89l-125.4 75.2h125.4v82h-376.2l-13.7-82h242.2l-119-75.3v-89l129.9 82.1 136.8-82zm-202.1 389.4c0 27.9 15.2 37.5 34.1 37.5h69.1c19 0 34.2-9.7 34.2-37.5s-15.3-37.7-34.2-37.7h-69.1c-18.9.1-34.1 9.9-34.1 37.7m155.3-436.3c0-13.8 11.2-24.8 25.3-24.8 14.3 0 25.4 11 25.4 24.9 0 13.8-11.1 25.1-25.4 25.1-14 0-25.3-11.2-25.3-25.1v-.1zm4 .2c0 11.1 9.6 20.2 21.4 20.2 12 0 21.5-9.1 21.5-20.4.1-11.2-9.5-20.2-21.4-20.2-11.9 0-21.5 9-21.5 20.2v.2zm36.1 4.7v4.5H1416c-.3-2.4-.7-4.6-.7-8 0-4.3.9-7.1 2.1-8.8 1.2-1.7 3.2-2.6 5.9-2.6 3.7 0 6 2.5 6.9 5.5h.2c.5-2.5 2.7-4.2 6.8-4.7 4.4-.7 6.1-1.4 7-1.8v4.7c-.9.7-3.5 1.4-7.2 1.9-3.6.7-5 2.5-5 6.1v3.1l12.2.1zm-15.7 0v-3.3c0-3.7-1.4-6.8-4.8-6.8-2.5 0-5 1.8-5 6.8 0 1.5.1 2.5.2 3.3h9.6z"/></svg>