<svg xmlns="http://www.w3.org/2000/svg" width="55.5" height="66.6" viewBox="0 0 55.5 66.6"><path fill="none" stroke="#FFF" stroke-width="3" stroke-miterlimit="10" d="M54 57.4c0 4.3-3.4 7.7-7.7 7.7H9.2c-4.3 0-7.7-3.4-7.7-7.7V32.8c0-4.3 3.4-7.7 7.7-7.7h37.1c4.3 0 7.7 3.4 7.7 7.7v24.6zm-8.6-32.3v-5.6m-36.2.1c0-10 8.1-18.1 18.1-18.1s18.1 8.1 18.1 18.1"/><path fill="none" stroke="#FFF" stroke-width="3" stroke-miterlimit="10" d="M30.7 44.8c0 1.8-1.5 3.3-3.3 3.3-1.8 0-3.3-1.5-3.3-3.3v-8.2c0-1.8 1.5-3.3 3.3-3.3 1.8 0 3.3 1.5 3.3 3.3v8.2z"/></svg>