<svg xmlns="http://www.w3.org/2000/svg" width="470.7" height="340" viewBox="0 0 470.7 340"><path d="M19.9 330.2v1.9c0 .6 0 1.1.1 1.6 0 .4.1.8.1 1.1 0 .3.1.6.2.8 0 .1.1.2.2.3l.3.3c.1 0 .3.1.5.2s.4.1.7.2l1.6.1v2.6c-.1 0-.2-.1-.2-.1h-.2c-.1 0-.2-.1-.2-.1h-9.3c-.4 0-.7 0-1 .1h-1.2c-.1 0-.2 0-.2.1h-.4v-2.5l1.5-.2c.3 0 .5 0 .7-.1.2-.1.4-.1.5-.2.2-.1.3-.2.3-.3.1-.1.1-.2.2-.3.1-.2.1-.5.2-.8 0-.3.1-.7.1-1.1v-.7c0-.3 0-.5.1-.8v-30.4c0-.3-.1-.5-.1-.8v-.7c0-.4-.1-.8-.1-1.1 0-.3-.1-.6-.2-.8 0-.1-.1-.2-.2-.4-.1-.1-.2-.2-.3-.2-.1-.1-.3-.2-.5-.2s-.4-.1-.7-.1l-1.5-.3v-2.6c.1.1.2.1.4.1h1.5c.3 0 .7.1 1 .1h6.7c.3 0 .5-.1.7-.1h1.9c.1 0 .1 0 .2-.1h.4v2.5l-1.6.2c-.3 0-.5.1-.7.2-.2.1-.4.1-.5.2-.2 0-.3.1-.3.2-.1.1-.1.2-.2.4s-.1.4-.2.8c0 .3-.1.7-.1 1.1 0 .4-.1.9-.1 1.5v1.9-.1 26.6zm9.1-12.1v-1.6c0-.5 0-.9-.1-1.2v-.8c0-.3-.1-.5-.3-.6-.2-.2-.4-.2-.6-.3l-1.8-.3V311c.6 0 1.2-.1 1.8-.2.6-.1 1.1-.3 1.7-.6.6-.2 1.1-.5 1.7-.7.6-.3 1.1-.5 1.7-.8h.1l.1-.1h.1l.1-.1c.1 0 .1-.1.2-.1s.2-.1.3-.1l.2.3v4.9l3.3-4 .1-.1c.1 0 .1-.1.1-.1.1 0 .1 0 .2-.1.1 0 .1-.1.1-.1l.1-.1c.1 0 .1-.1.1-.1l.1-.1c.1 0 .1-.1.1-.1.1 0 .2-.1.2-.1.1 0 .2-.1.3-.1h.7c.1 0 .2 0 .3-.1h.7l.1.1h.6c.3 0 .7.1 1 .3.3.2.6.3.9.6.3.2.6.5.9.7.3.3.5.6.7.9.4.6.7 1.2.9 1.9.2.7.4 1.5.4 2.3.1.8.1 1.7.2 2.5 0 .9.1 1.8.1 2.7v13.2c0 .3 0 .6.1.8v.6c0 .2 0 .4.1.6 0 .2.1.3.1.4.1.1.1.2.3.3.1.1.2.2.4.2.2.1.4.1.6.2l1.4.1v2.4c-.1 0-.1-.1-.2-.1H49c-.1 0-.1-.1-.2-.1H48c-.1 0-.3-.1-.4-.1h-4.2c-.2 0-.4 0-.6.1h-.7c-.1 0-.1 0-.1.1h-.3v-17.8c0-.7 0-1.4-.1-2.1-.1-.6-.1-1.2-.2-1.6-.1-.5-.2-.9-.3-1.3-.2-.4-.3-.7-.5-1-.2-.3-.4-.5-.6-.7-.2-.2-.4-.4-.7-.5-.3-.1-.5-.2-.8-.2-.3-.1-.6-.1-1-.1-.3 0-.7.1-1 .3-.3.2-.6.4-.9.8-.3.3-.5.6-.7 1-.2.4-.4.8-.5 1.1 0 .1-.1.3-.1.4v.3c0 .1-.1.2-.1.3v15.5c0 .3 0 .6.1.8v.6c0 .2 0 .4.1.6 0 .2.1.3.1.4.1.1.1.2.3.3.1.1.2.2.4.2.2.1.4.1.6.2l1.5.1v2.4c-.1 0-.1-.1-.2-.1h-1.6c-.3 0-.6-.1-.9-.1h-7.4c-.1 0-.1 0-.2.1h-.4v-2.3l1.4-.1c.2 0 .4 0 .5-.1.2-.1.3-.1.4-.2.1-.1.2-.2.2-.3.1-.1.1-.3.2-.4V334c0-.1 0-.3.1-.5v-15.4zm34.9-.4l-.4-3.8c0-.2-.1-.5-.2-.7-.1-.2-.3-.4-.6-.6-.3-.2-.5-.4-.7-.6-.2-.2-.5-.3-.7-.4H61c-.1 0-.2-.1-.3-.1h-.1s-.1 0-.1-.1h-.3c-.6 0-1.1.1-1.6.3-.5.2-.9.5-1.2.8-.4.3-.6.8-.8 1.3-.2.5-.3 1.1-.3 1.8 0 .5 0 1 .1 1.4.1.4.2.7.4 1 .2.3.4.6.7.8.3.2.6.4 1.1.5l3.4 1.1c.9.3 1.6.7 2.2 1.1.6.5 1.2 1 1.7 1.6.4.6.8 1.4 1 2.4.2 1 .3 2.1.3 3.5 0 1.8-.2 3.4-.6 4.8-.4 1.4-1.1 2.5-1.9 3.4-.9.9-1.8 1.5-2.7 2-.9.5-1.9.7-3 .8h-1.2c-.3 0-.5-.1-.8-.1-.3 0-.6-.1-.8-.1-.3 0-.5-.1-.8-.2-.3-.1-.5-.2-.8-.3-.3-.1-.5-.2-.8-.3-.3-.1-.5-.2-.8-.3-.3-.1-.5-.3-.8-.4l.3-9.3h1.6l.2 4.5c.3.7.6 1.2 1 1.6.4.4.8.8 1.2 1 .4.3.9.5 1.3.6.5.1 1 .2 1.4.2.4 0 .9-.1 1.3-.3.4-.2.8-.5 1.2-1 .3-.4.6-1 .8-1.6.2-.6.3-1.3.3-2.1 0-.7-.1-1.3-.2-1.8s-.3-.8-.6-1.1c-.3-.3-.5-.5-.9-.7-.3-.2-.7-.4-1-.6l-3.6-1.4c-.7-.3-1.3-.6-1.9-1.1-.5-.5-1-1-1.4-1.7-.4-.7-.6-1.5-.8-2.3-.2-.8-.3-1.8-.3-2.8 0-1.9.2-3.5.6-4.8.4-1.3 1-2.4 1.8-3.1.8-.7 1.7-1.3 2.7-1.7 1-.4 2.1-.6 3.3-.6h1.4c.2 0 .5.1.7.1.2 0 .5.1.7.1.4.1.9.2 1.3.4s.8.4 1.2.7l-.3 7.9h-1.6zm8.5-2.8l-2.7.3v-1.4l2.8-2.8v-4.8c0-.1-.1-.2-.1-.3V304c0-.2-.1-.4-.1-.7v-2.4c.1 0 .2-.1.2-.1.1 0 .2-.1.3-.1l.1-.1s.1-.1.2-.1h.1l.1-.1c.1-.1.2-.2.3-.2.1-.1.2-.1.3-.2l.1-.1c.1 0 .1-.1.1-.1h.1c.1 0 .1 0 .1-.1.3-.2.6-.3.8-.5.3-.2.5-.3.8-.5.3-.2.5-.3.7-.5.2-.2.4-.3.6-.4l.6.6c0 .3-.1.6-.1 1s-.1.7-.1 1c0 .2-.1.3-.1.5s0 .4-.1.5v1.2c0 .3-.1.7-.1 1.1v7.6l4.7-.4-.3 4.2h-4.4v15.5c0 .8 0 1.5.1 2.1.1.6.2 1 .4 1.3.2.3.4.5.8.7.3.1.7.2 1.2.2h.5c.1 0 .2-.1.4-.1.1 0 .1-.1.2-.1s.1-.1.2-.1l.1-.1c.1 0 .1-.1.2-.1h.1v-.1h.1l.1-.1.1-.1.3 1.2-2 3.9-.3.3c-.1.1-.3.3-.6.4-.2.1-.5.2-.7.3-.3.1-.6.1-.9.1-.9 0-1.7-.2-2.4-.5s-1.2-.8-1.6-1.3c-.4-.7-.7-1.5-.9-2.6-.2-1-.3-2.3-.3-3.8v-17.2zm14.5 3.2v-2.2c0-.6-.1-1-.1-1.3 0-.3-.1-.5-.3-.6-.1-.2-.4-.2-.6-.3l-1.9-.3V311h.4c.1 0 .1-.1.1-.1.2 0 .4-.1.5-.1.2 0 .3-.1.5-.1s.3-.1.5-.1.4-.1.5-.1c.3-.1.7-.2 1-.3.3-.1.7-.3 1.1-.5l2.9-1.5.4.4v24.9c0 .3 0 .6.1.8v.6c0 .2 0 .4.1.6 0 .2.1.3.1.4.1.1.1.2.3.3.1.1.2.2.4.2.2.1.4.1.6.2l1.4.1v2.4l-.1-.1h-.4c-.1 0-.2-.1-.3-.1h-9c-.1 0-.1 0-.2.1h-.4v-2.3l1.4-.1c.2 0 .4 0 .6-.1.2-.1.3-.1.4-.2.1-.1.1-.2.2-.3.1-.1.1-.3.1-.4 0-.2.1-.4.1-.6 0-.2 0-.4.1-.6v-16.3zm3.6-24.8c.4.2.7.6 1 1.1.3.4.5.9.7 1.5.1.6.2 1.3.2 2s-.1 1.3-.2 1.9c-.2.6-.4 1.1-.7 1.6-.3.4-.6.8-1 1-.4.2-.8.4-1.2.4-.4 0-.8-.1-1.2-.4-.4-.2-.7-.6-1.1-1-.3-.5-.5-1-.7-1.6-.1-.6-.2-1.2-.2-1.9s.1-1.4.2-2c.1-.6.4-1.1.7-1.5.3-.5.6-.8 1-1.1.4-.2.8-.4 1.2-.4v-.1c.5.1.9.3 1.3.5zm9.4 21.6l-2.7.3v-1.4l2.8-2.8v-4.8c0-.1-.1-.2-.1-.3V304c0-.2-.1-.4-.1-.7v-2.4c.1 0 .2-.1.3-.1.1 0 .2-.1.3-.1l.1-.1s.1-.1.2-.1h.1l.1-.1c.1-.1.2-.2.3-.2.1-.1.2-.1.3-.2l.1-.1c.1 0 .1-.1.1-.1h.1c.1 0 .1 0 .1-.1.3-.2.6-.3.8-.5.3-.2.5-.3.8-.5.3-.2.5-.3.7-.5.2-.2.4-.3.6-.4l.6.6c0 .3-.1.6-.1 1s-.1.7-.1 1c0 .2-.1.3-.1.5s0 .4-.1.5v1.2c0 .3-.1.7-.1 1.1v7.6l4.7-.4-.3 4.2H105v15.5c0 .8 0 1.5.1 2.1.1.6.2 1 .4 1.3.2.3.4.5.8.7.3.1.7.2 1.2.2h.5c.1 0 .2-.1.4-.1.1 0 .1-.1.2-.1s.1-.1.2-.1l.1-.1c.1 0 .1-.1.2-.1h.1v-.1h.1l.1-.1.1-.1.3 1.2-2 3.9-.3.3c-.2.1-.3.3-.6.4-.2.1-.5.2-.7.3-.3.1-.6.1-.9.1-.9 0-1.7-.2-2.4-.5s-1.2-.8-1.6-1.3c-.4-.7-.7-1.5-.9-2.6-.2-1-.3-2.3-.3-3.8v-17.2zm14.2 3.2v-1.6c0-.5 0-.9-.1-1.2v-.8c-.1-.3-.2-.5-.3-.6-.1-.2-.3-.2-.6-.3l-1.9-.3V311h.4c.1 0 .1-.1.1-.1.3-.1.7-.2 1-.2.3-.1.7-.1 1.1-.2.3-.1.7-.2 1-.3.3-.1.7-.3 1.1-.5l2.9-1.5.4.4v17.3c0 1 0 2 .1 3s.2 1.9.4 2.7c.2.9.5 1.5 1 2 .5.4 1.1.7 1.9.7.4 0 .7-.1 1.1-.2.3-.1.6-.4.9-.7.3-.3.6-.7.8-1.1.3-.4.5-.8.7-1.3v-.2c0-.1 0-.1.1-.2 0-.1.1-.2.1-.2v-.6c0-.1 0-.3.1-.5v-.1s0-.1.1-.1v-12.5c0-.5-.1-.9-.1-1.2v-.8c-.1-.3-.2-.5-.3-.6-.1-.2-.4-.2-.6-.3l-1.9-.3V311h.4c.1 0 .1-.1.1-.1.3-.1.7-.2 1-.2.4-.1.7-.1 1.1-.2.3-.1.7-.2 1-.3.3-.1.7-.3 1.1-.5l2.9-1.5.4.4v24.9c0 .3 0 .6.1.8v.6c0 .2 0 .4.1.6 0 .2.1.3.1.4.1.1.1.2.2.3.1.1.2.2.4.2.2.1.4.1.6.2l1.4.1v2.4l-.1-.1h-.7c-.1 0-.1-.1-.2-.1h-.8c-.3 0-.5-.1-.8-.1h-5.1c-.1 0-.2 0-.2.1h-.4l.2-5.4-3.2 4.8c-.1.2-.3.3-.5.5-.2.1-.3.3-.5.4-.1.1-.2.2-.3.2-.1 0-.2.1-.3.1-.1 0-.2 0-.3.1-.1 0-.2.1-.3.1 0 0-.1 0-.1.1h-.3c-1.1 0-2.1-.2-3-.7-.8-.5-1.5-1.1-2-2-.5-.9-.8-2-1.1-3.2-.3-1.2-.4-2.6-.4-4.2v-11.6zm24.9-3.2l-2.7.3v-1.4l2.8-2.8v-4.8c0-.1-.1-.2-.1-.3V304c0-.2-.1-.4-.1-.7v-2.4c.1 0 .2-.1.2-.1.1 0 .2-.1.3-.1l.1-.1s.1-.1.2-.1h.1l.1-.1c.1-.1.2-.2.3-.2.1-.1.2-.1.3-.2l.1-.1c.1 0 .1-.1.1-.1h.1c.1 0 .1 0 .1-.1.3-.2.6-.3.8-.5.3-.2.5-.3.8-.5.3-.2.5-.3.7-.5.2-.2.4-.3.6-.4l.6.6c0 .3-.1.6-.1 1s-.1.7-.1 1c0 .2-.1.3-.1.5s0 .4-.1.5v1.2c0 .3-.1.7-.1 1.1v7.6l4.7-.4-.3 4.2h-4.4v15.5c0 .8 0 1.5.1 2.1.1.6.2 1 .4 1.3.2.3.4.5.8.7.3.1.7.2 1.2.2h.5c.1 0 .2-.1.4-.1.1 0 .1-.1.2-.1s.1-.1.2-.1l.1-.1c.1 0 .1-.1.2-.1h.1v-.1h.1l.1-.1.1-.1.3 1.2-2.1 3.9-.3.3c-.1.1-.3.3-.6.4-.2.1-.5.2-.7.3-.3.1-.6.1-.9.1-.9 0-1.7-.2-2.4-.5s-1.2-.8-1.6-1.3c-.4-.7-.7-1.5-.9-2.6-.2-1-.3-2.3-.3-3.8v-17.2zm17.4 9.5c0 1.6.1 3.1.4 4.4.3 1.3.7 2.5 1.3 3.6.6 1 1.2 1.8 2.1 2.3.8.5 1.8.8 2.8.8h.5c.2 0 .3-.1.5-.1.2-.1.4-.2.5-.2.2-.1.4-.1.6-.2l.6-.3c.2-.1.4-.3.6-.5.2-.1.4-.3.6-.4.2-.2.4-.3.6-.5l.5.9-.9 3.1c-.3.3-.6.6-.9.8l-.9.6c-.3.2-.5.3-.8.4-.3.1-.5.2-.8.4-.3.1-.5.2-.8.3-.3.1-.5.2-.8.2-.3 0-.5.1-.8.1h-.9c-1.5 0-2.8-.3-4-.9-1.2-.6-2.2-1.6-3-3-.8-1.3-1.4-2.9-1.8-4.8-.4-1.8-.6-3.9-.6-6.3 0-1.4.1-2.6.2-3.9.1-1.2.3-2.4.5-3.6.2-1.2.6-2.2 1.2-3.2s1.3-1.9 2.1-2.7l2-1.9c.3-.2.5-.4.8-.6.3-.2.5-.3.8-.5l.9-.3c.3-.1.6-.1.9-.1 1.1 0 2.2.2 3.2.7 1 .5 1.8 1.2 2.6 2.2.8 1 1.4 2.2 1.7 3.6.4 1.4.6 3.1.6 5v3.3c-.1 0-.1.1-.2.1s-.1.1-.2.1-.2.1-.3.1c-.1 0-.2.1-.2.1-.1 0-.3.1-.4.1-.1 0-.3.1-.4.1l-1.2.3c-.4.1-.8.2-1.2.2-.4 0-.8.1-1.2.1h-1.1v-.1h-5.7zm1.7-11.9c-.5.4-.8.9-1.1 1.7-.3.7-.5 1.7-.7 2.8-.2 1.2-.2 2.5-.2 4h.2c.1 0 .1.1.2.1h.7c.2 0 .4.1.6.1h3.6c.2 0 .4-.1.6-.1h.7s.1 0 .2-.1h.2v-.6c0-.1-.1-.2-.1-.3v-1.8c0-.8-.1-1.5-.3-2.3-.1-.7-.3-1.5-.6-2.2-.3-.7-.6-1.2-1-1.6-.4-.3-.9-.5-1.5-.5v-.1c-.5.3-1 .5-1.5.9zm38.2-3.2c1.2.7 2.2 1.7 3 3 .8 1.3 1.4 3 1.8 4.8.4 1.9.6 4 .6 6.5 0 2.7-.2 5-.7 7-.4 2-1.1 3.8-2 5.2-.9 1.4-2 2.5-3.3 3.2-1.3.7-2.8 1-4.5 1-1.6 0-3-.3-4.2-1-1.2-.7-2.2-1.8-2.9-3.3-.7-1.5-1.3-3.2-1.7-5.1-.4-1.9-.6-4-.6-6.3 0-2.5.2-4.8.6-6.7.4-2 1.1-3.7 1.9-5.1.9-1.4 2-2.4 3.2-3.2 1.3-.7 2.7-1.1 4.4-1.1v-.1c1.8.2 3.2.5 4.4 1.2zm-2.4 27.2c.5-.4.8-.9 1.1-1.7.3-.7.5-1.5.7-2.3.2-.8.3-1.6.4-2.5v-1c0-.1.1-.3.1-.4v-6.3c0-.4 0-.8-.1-1.1V320c-.1-1-.3-2.1-.5-3-.2-1-.5-1.9-.7-2.8-.3-.9-.7-1.5-1.2-2s-1.1-.7-1.7-.7c-.7 0-1.4.2-1.9.6-.5.4-.9 1-1.2 1.8-.3.8-.5 1.7-.7 2.5-.2.9-.3 1.8-.4 2.7 0 .3-.1.6-.1.9v5.5c0 .5 0 1 .1 1.6.1.5.1 1 .1 1.6.1 1 .2 2.1.4 3 .2 1 .5 1.9.8 2.8.3.9.7 1.5 1.2 2 .5.4 1.2.7 1.9.7v-.1c.7-.1 1.2-.3 1.7-.6zm25.3-37.8l-.7.5c-.1-.1-.2-.2-.4-.3-.1-.1-.3-.2-.5-.4-.2-.1-.3-.2-.4-.4-.1-.1-.3-.2-.4-.2h-.1l-.1-.1h-.3s-.1 0-.1-.1h-.2c-.6 0-1.1.1-1.5.4-.4.3-.6.7-.7 1.3-.1.6-.2 1.2-.3 1.9 0 .7-.1 1.5-.1 2.3v7c.1 0 .1.1.2.1h3c.4 0 .8-.1 1.2-.1.4 0 .7-.1 1.1-.1l.2.5-.4 3.8h-5.1v18.9c0 .3 0 .6.1.8v.6c0 .2 0 .4.1.6 0 .2.1.3.2.5.1.1.2.2.4.3.1 0 .2.1.4.2.1.1.3.1.4.1.1 0 .1.1.2.1h.4l1.9.1v2.4c-.1 0-.2-.1-.3-.1h-.3l-.1-.1h-1.7c-.3 0-.5-.1-.7-.1h-8.7c-.1 0-.2 0-.3.1h-.5v-2.3l1.7-.1c.2 0 .4 0 .6-.1.2 0 .3-.1.5-.2.1-.1.3-.2.3-.3.1-.1.1-.3.2-.5 0-.2.1-.4.1-.6 0-.2 0-.4.1-.6v-19.7l-3.6.2v-1.6c.2-.1.3-.2.4-.3.1-.1.3-.2.5-.3l.4-.4c.1-.1.3-.2.4-.4.3-.2.6-.5.8-.7.2-.3.5-.5.7-.8v-2.9c0-.9 0-1.7.1-2.3 0-.7.1-1.3.1-1.8s.1-.9.3-1.4c.1-.4.3-.9.5-1.3.1-.1.2-.3.2-.5.1-.2.2-.3.3-.5.1-.2.2-.4.4-.6.1-.2.3-.4.4-.6l3-4.1c.4-.5.8-.9 1.1-1.3.3-.3.6-.6.9-.7.1-.1.2-.2.4-.2.1-.1.2-.1.4-.2.1 0 .2-.1.4-.1.1 0 .2-.1.4-.1h.7l.1.1h.7l.1.1h.1c.1 0 .1.1.2.1s.1.1.2.1v-.1 6.5zm68.8 37.5c-1 .6-1.9 1.2-2.9 1.6-1 .5-2 .9-3 1.2-1 .3-2 .6-3 .8-1 .2-2.1.3-3.2.3-2.4 0-4.5-.5-6.5-1.5s-3.7-2.5-5.3-4.5c-1.6-2-2.7-4.5-3.5-7.5-.8-3-1.2-6.4-1.2-10.3 0-3.7.4-7 1.2-9.9.8-2.8 2.1-5.2 3.7-7 1.7-1.9 3.5-3.3 5.4-4.2 1.9-.9 4-1.4 6.2-1.4h.6c.1 0 .2.1.4.1h1.2c.1 0 .2.1.4.1h.4c.3 0 .7.1 1 .1.4 0 .7.1 1.1.2.4.1.7.2 1.1.3.3.1.7.2 1 .3.7.2 1.5.5 2.2.8.7.3 1.4.8 2.2 1.2l.3.7c-.1.3-.1.7-.2 1.1-.1.4-.1.9-.1 1.3 0 .5-.1 1-.1 1.5-.1.5-.1 1-.2 1.5 0 .4-.1.9-.1 1.3s0 .8-.1 1.2c0 .4-.1.8-.1 1.1 0 .3 0 .7-.1 1l-1.6-.1-.2-5.6c-.4-.6-.8-1.2-1.3-1.7s-1.1-.9-1.8-1.3l-2.1-.9c-.7-.2-1.5-.4-2.2-.5h-.7c-.1 0-.1 0-.1-.1h-.4c-1.7 0-3.2.4-4.5 1.3-1.3.9-2.4 2.2-3.3 3.9-.9 1.7-1.6 3.6-2 5.8-.4 2.2-.7 4.5-.7 7.1 0 2.8.2 5.5.7 8 .5 2.5 1.2 4.8 2.1 6.9.9 2.1 2.1 3.7 3.5 4.8 1.4 1 3 1.6 4.9 1.6.3 0 .7 0 1-.1.3 0 .7-.1 1-.1.3-.1.7-.2 1-.3.3-.1.7-.3 1-.4l.1-.1c.1 0 .1-.1.1-.1h.2c.1 0 .1-.1.1-.1.1-.1.2-.2.3-.2.1-.1.2-.1.3-.2v-8.7c0-.5-.1-.9-.2-1.2-.1-.3-.3-.5-.5-.6-.3-.1-.5-.2-.8-.3-.3-.1-.6-.2-.9-.2l-2.2-.2v-3c.2 0 .4.1.5.1h1.4c.3 0 .7.1 1 .1h4.8c.1 0 .3 0 .4-.1h1.4s.1 0 .2-.1h1.4c.1 0 .2 0 .3-.1h.6v2.2l-.1.1-.1.1h-.2l-.1.1c-.3.1-.5.2-.6.3-.2.1-.3.3-.4.4-.1.1-.1.3-.2.6 0 .2-.1.5-.1.9v-.1 10.7zm11.2-11.8c0 1.6.1 3.1.4 4.4.3 1.3.7 2.5 1.3 3.6.6 1 1.2 1.8 2.1 2.3.8.5 1.8.8 2.8.8h.5c.2 0 .3-.1.5-.1.2-.1.4-.2.5-.2.2-.1.4-.1.6-.2l.6-.3c.2-.1.4-.3.6-.5.2-.1.4-.3.6-.4.2-.2.4-.3.6-.5l.5.9-.9 3.1c-.3.3-.6.6-.9.8l-.9.6c-.3.2-.5.3-.8.4-.3.1-.5.2-.8.4-.3.1-.5.2-.8.3-.3.1-.5.2-.8.2-.3 0-.5.1-.8.1h-.9c-1.5 0-2.8-.3-4-.9-1.2-.6-2.2-1.6-3-3-.8-1.3-1.4-2.9-1.8-4.8-.4-1.8-.6-3.9-.6-6.3 0-1.4.1-2.6.2-3.9.1-1.2.3-2.4.5-3.6.2-1.2.6-2.2 1.2-3.2s1.3-1.9 2.1-2.7l2-1.9c.3-.2.5-.4.8-.6.3-.2.5-.3.8-.5l.9-.3c.3-.1.6-.1.9-.1 1.1 0 2.2.2 3.1.7 1 .5 1.8 1.2 2.6 2.2.8 1 1.4 2.2 1.7 3.6.4 1.4.6 3.1.6 5v3.3c-.1 0-.1.1-.2.1s-.1.1-.2.1-.2.1-.3.1c-.1 0-.1.1-.2.1s-.3.1-.4.1c-.1 0-.3.1-.4.1l-1.2.3c-.4.1-.8.2-1.2.2-.4 0-.8.1-1.2.1h-1.1v-.1h-5.6zm1.8-11.9c-.5.4-.8.9-1.1 1.7-.3.7-.5 1.7-.7 2.8-.2 1.2-.2 2.5-.2 4h.2c.1 0 .1.1.2.1h.7c.2 0 .4.1.6.1h3.6c.2 0 .4-.1.6-.1h.7s.1 0 .2-.1h.2v-.6c0-.1-.1-.2-.1-.3v-1.8c0-.8-.1-1.5-.3-2.3-.1-.7-.3-1.5-.6-2.2-.3-.7-.6-1.2-1-1.6-.4-.3-.9-.5-1.5-.5v-.1c-.6.3-1.1.5-1.5.9zm15.8 5.6v-1.6c0-.5 0-.9-.1-1.2v-.8c0-.3-.1-.5-.3-.6-.2-.2-.4-.2-.6-.3l-1.8-.3V311c.6 0 1.2-.1 1.8-.2.6-.1 1.1-.3 1.7-.6.6-.2 1.1-.5 1.7-.7.5-.3 1.1-.5 1.7-.8h.1l.1-.1h.1l.1-.1c.1 0 .2-.1.2-.1.1 0 .2-.1.3-.1l.2.3v4.9l3.3-4 .1-.1c.1 0 .1-.1.1-.1.1 0 .1 0 .2-.1.1 0 .1-.1.1-.1l.1-.1c.1 0 .1-.1.1-.1l.1-.1c.1 0 .1-.1.1-.1.1 0 .2-.1.2-.1.1 0 .2-.1.3-.1h.6c.1 0 .2 0 .2-.1h.7l.1.1h.5c.3 0 .7.1 1 .3.3.2.6.3.9.6.3.2.6.5.9.7.3.3.5.6.7.9.4.6.7 1.2.9 1.9.2.7.4 1.5.4 2.3.1.8.1 1.7.2 2.5 0 .9.1 1.8.1 2.7v13.2c0 .3 0 .6.1.8v.6c0 .2 0 .4.1.6 0 .2.1.3.1.4.1.1.1.2.2.3.1.1.2.2.4.2.2.1.4.1.6.2l1.4.1v2.4c-.1 0-.1-.1-.2-.1h-.2c-.1 0-.1-.1-.2-.1h-.8c-.2 0-.3-.1-.4-.1h-4.2c-.2 0-.4 0-.6.1h-.7c-.1 0-.1 0-.1.1h-.3v-17.8c0-.7 0-1.4-.1-2.1-.1-.6-.1-1.2-.2-1.6-.1-.5-.2-.9-.3-1.3-.2-.4-.3-.7-.5-1-.2-.3-.4-.5-.6-.7-.2-.2-.4-.4-.7-.5-.3-.1-.5-.2-.8-.2-.3-.1-.6-.1-1-.1-.3 0-.7.1-1 .3-.3.2-.6.4-.9.8-.3.3-.5.6-.7 1-.2.4-.4.8-.5 1.1 0 .1-.1.3-.1.4v.3c0 .1-.1.2-.1.3v15.5c0 .3 0 .6.1.8v.6c0 .2 0 .4.1.6 0 .2.1.3.1.4.1.1.1.2.2.3.1.1.2.2.4.2.2.1.4.1.6.2l1.5.1v2.4c-.1 0-.1-.1-.2-.1h-1.6c-.3 0-.6-.1-.9-.1h-7.5c-.1 0-.1 0-.2.1h-.4v-2.3l1.4-.1c.2 0 .4 0 .5-.1.2-.1.3-.1.4-.2.1-.1.1-.2.2-.3.1-.1.1-.3.2-.4V334c0-.1 0-.3.1-.5v-15.4zm28.5 6.3c0 1.6.1 3.1.4 4.4.3 1.3.7 2.5 1.3 3.6.6 1 1.2 1.8 2.1 2.3.8.5 1.8.8 2.8.8h.5c.2 0 .3-.1.5-.1.2-.1.4-.2.5-.2.2-.1.4-.1.6-.2l.6-.3c.2-.1.4-.3.6-.5.2-.1.4-.3.6-.4.2-.2.4-.3.6-.5l.5.9-.9 3.1c-.3.3-.6.6-.9.8l-.9.6c-.3.2-.5.3-.8.4-.3.1-.5.2-.8.4-.3.1-.5.2-.8.3-.3.1-.5.2-.8.2-.3 0-.5.1-.8.1h-.9c-1.5 0-2.8-.3-4-.9-1.2-.6-2.2-1.6-3-3-.8-1.3-1.4-2.9-1.8-4.8-.4-1.8-.6-3.9-.6-6.3 0-1.4.1-2.6.2-3.9.1-1.2.3-2.4.5-3.6.2-1.2.6-2.2 1.2-3.2s1.3-1.9 2.1-2.7l2-1.9c.3-.2.5-.4.8-.6.3-.2.5-.3.8-.5l.9-.3c.3-.1.6-.1.9-.1 1.1 0 2.2.2 3.2.7 1 .5 1.8 1.2 2.6 2.2.8 1 1.4 2.2 1.7 3.6.4 1.4.6 3.1.6 5v3.3c-.1 0-.2.1-.2.1-.1 0-.2.1-.2.1-.1 0-.2.1-.3.1-.1 0-.1.1-.2.1s-.3.1-.4.1c-.2 0-.3.1-.4.1-.4.1-.8.2-1.3.3-.4.1-.8.2-1.2.2-.4 0-.8.1-1.2.1h-1.1v-.1h-5.6zm1.7-11.9c-.5.4-.8.9-1.1 1.7-.3.7-.5 1.7-.7 2.8-.2 1.2-.2 2.5-.2 4h.2c.1 0 .1.1.2.1h.6c.2 0 .4.1.6.1h3.6c.2 0 .4-.1.6-.1h.7s.1 0 .2-.1h.2v-.6c0-.1-.1-.2-.1-.3v-1.8c0-.8-.1-1.5-.3-2.3-.1-.7-.3-1.5-.6-2.2-.3-.7-.6-1.2-1-1.6-.4-.3-.9-.5-1.5-.5v-.1c-.4.3-.9.5-1.4.9zm16.1 5.6v-2.2c0-.6-.1-1-.1-1.3 0-.3-.1-.5-.3-.6-.2-.2-.4-.2-.6-.3l-1.9-.3V311h.4c.1 0 .1-.1.1-.1.2 0 .4-.1.5-.1.2 0 .3-.1.5-.1.1 0 .3-.1.5-.1s.4-.1.5-.1c.3-.1.7-.2 1-.3.3-.1.7-.3 1.1-.5l2.9-1.5.4.4v6.2l1.8-3.1c.2-.3.3-.5.5-.8.1-.2.3-.5.4-.7.2-.2.3-.4.5-.6.1-.2.3-.3.4-.5.1-.1.1-.2.2-.2s.1-.1.2-.1l.1-.1c.1 0 .1-.1.2-.1.1-.1.2-.2.4-.2.1 0 .3-.1.4-.1h.6c.1 0 .1.1.2.1h.2c.1 0 .3.1.4.1.1 0 .3.1.4.2l-.2 8.4-1 .7c-.1-.3-.3-.7-.5-1-.2-.3-.3-.5-.5-.7-.2-.2-.5-.4-.7-.5-.2-.1-.5-.1-.8-.1-.3 0-.7.1-.9.2-.3.2-.6.4-.9.7-.3.3-.5.6-.8 1-.2.4-.4.7-.5 1.1 0 .1-.1.2-.1.3v.3c0 .1-.1.2-.1.3v14.3c0 .3 0 .6.1.8v.6c0 .2 0 .4.1.6 0 .2.1.3.2.5.1.1.2.2.4.3.2.1.4.2.6.2.2.1.4.1.6.1l1.6.1v2.4c-.1 0-.2-.1-.3-.1h-.3c-.1 0-.2-.1-.3-.1h-1.3c-.2 0-.4-.1-.6-.1H361c-.1 0-.1 0-.2.1h-.4v-2.3l1.4-.1c.2 0 .4 0 .6-.1.2-.1.3-.1.4-.2.1-.1.1-.2.2-.3.1-.1.1-.3.1-.4 0-.2.1-.4.1-.6 0-.2 0-.4.1-.6v-16.4zm24.3 2.9c0-1.1-.1-2.2-.3-3.1-.2-.9-.4-1.7-.7-2.4-.3-.7-.8-1.3-1.3-1.6-.6-.4-1.2-.5-2-.5h-.2l-.1.1h-.3l-.1.1h-.1c-.1 0-.1.1-.2.1h-.2c-.1.1-.2.1-.2.1-.1 0-.1.1-.2.1l-.1.1c-.1 0-.1.1-.1.1l-.1.1-.1.1-.9 3.2-1.2-.5v-4.5l2.2-2.1.6-.6c.2-.2.4-.3.6-.5.2-.1.4-.2.6-.4l.6-.3 1.2-.3c.4-.1.7-.1 1.1-.1.9 0 1.7.2 2.5.5s1.5.9 2.2 1.6c.7.7 1.2 1.6 1.5 2.8.3 1.2.5 2.6.5 4.2v4.5c0 .3-.1.5-.1.7v5.9c0 .2 0 .3.1.5v2c0 .1 0 .1.1.2v3c0 .4 0 .8.1 1.1.1.3.1.6.2.8.1.2.2.4.3.5.1.1.3.2.6.3l1.2.1v2.4l-.1-.1h-.2l-.1-.1h-4.8c-.2 0-.4 0-.6.1h-.9c-.1 0-.1 0-.2.1h-.3l-.2-.5.2-4-3.9 4.7s-.1 0-.1.1l-.1.1c-.1.1-.1.2-.2.2s-.1.1-.3.1c0 0-.1.1-.2.1h-.2c-.1 0-.1.1-.2.1h-.3s-.1 0-.1.1h-.7c-.8 0-1.4-.2-2-.6-.6-.4-1-.9-1.4-1.6-.4-.7-.7-1.6-.9-2.5-.2-.9-.3-2-.3-3.2v-1.6c.1-.5.1-1 .2-1.5l.3-1.5c.1-.5.3-.9.6-1.3.2-.4.5-.8.7-1.1.3-.3.6-.7.9-.9.3-.3.7-.5 1-.7.4-.2.7-.4 1.1-.6.3-.2.7-.3 1.1-.5h.1c.1 0 .1-.1.1-.1h.3c.1 0 .1-.1.1-.1h.2v-.1l3.7-1.4zm0 2.8l-1.9.8v.1h-.1l-.1.1h-.1c0 .1-.1.1-.1.1-.5.2-.9.5-1.3.8-.4.3-.8.6-1.1 1-.3.3-.6.9-.7 1.5-.1.7-.2 1.5-.2 2.5 0 .7.1 1.3.2 1.8s.3.9.5 1.2c.2.3.5.5.7.7.3.2.6.2.9.2h.2c.1 0 .2 0 .3-.1h.1c.1 0 .1-.1.1-.1h.1c.1 0 .1-.1.1-.1.1 0 .2-.1.2-.2.1-.1.2-.1.3-.2.1-.1.2-.2.3-.2.1-.1.2-.1.2-.2.2-.1.3-.3.5-.5.1-.2.3-.3.4-.5v-.1s0-.1.1-.1c0 0 .1 0 .1-.1v-.1l.1-.1v-.2s0-.1.1-.1v-7.9zm11.9-8.9l-2.7.3v-1.4l2.8-2.8v-4.8c0-.1-.1-.2-.1-.3V304c0-.2-.1-.4-.1-.7v-2.4c.1 0 .2-.1.2-.1.1 0 .2-.1.3-.1l.1-.1s.1-.1.2-.1h.1l.1-.1c.1-.1.2-.2.3-.2.1-.1.2-.1.3-.2l.1-.1c.1 0 .1-.1.1-.1h.1c.1 0 .1 0 .1-.1.3-.2.6-.3.8-.5.3-.2.5-.3.8-.5.3-.2.5-.3.7-.5.2-.2.4-.3.6-.4l.6.6c0 .3-.1.6-.1 1s-.1.7-.1 1c0 .2-.1.3-.1.5s0 .4-.1.5v1.2c0 .3-.1.7-.1 1.1v7.6l4.7-.4-.3 4.2h-4.4v15.5c0 .8 0 1.5.1 2.1.1.6.2 1 .4 1.3.2.3.4.5.8.7.3.1.7.2 1.2.2h.5c.1 0 .2-.1.4-.1.1 0 .1-.1.2-.1s.1-.1.2-.1l.1-.1c.1 0 .1-.1.2-.1h.1v-.1h.1l.1-.1.1-.1.3 1.2-2 3.9-.3.3c-.1.1-.3.3-.6.4-.2.1-.5.2-.7.3-.3.1-.6.1-.9.1-.9 0-1.7-.2-2.4-.5s-1.2-.8-1.6-1.3c-.4-.7-.7-1.5-.9-2.6-.2-1-.3-2.3-.3-3.8v-17.2zm14.6 3.2v-2.2c0-.6-.1-1-.1-1.3 0-.3-.1-.5-.3-.6-.1-.2-.4-.2-.6-.3l-1.9-.3V311h.4c.1 0 .1-.1.1-.1.2 0 .4-.1.5-.1.2 0 .3-.1.5-.1.1 0 .3-.1.5-.1s.3-.1.5-.1c.3-.1.7-.2 1-.3.3-.1.7-.3 1.1-.5l2.9-1.5.4.4v24.9c0 .3 0 .6.1.8v.6c0 .2 0 .4.1.6 0 .2.1.3.1.4.1.1.1.2.2.3.1.1.2.2.4.2.2.1.4.1.6.2l1.4.1v2.4l-.1-.1h-.4c-.1 0-.2-.1-.3-.1h-9c-.1 0-.1 0-.2.1h-.4v-2.3l1.4-.1c.2 0 .4 0 .6-.1.2-.1.3-.1.4-.2.1-.1.1-.2.2-.3.1-.1.1-.3.1-.4 0-.2.1-.4.1-.6 0-.2 0-.4.1-.6v-16.3zm3.6-24.8c.4.2.7.6 1 1.1.3.4.5.9.7 1.5.1.6.2 1.3.2 2s-.1 1.3-.2 1.9c-.2.6-.4 1.1-.7 1.6-.3.4-.6.8-1 1-.4.2-.8.4-1.2.4-.4 0-.8-.1-1.2-.4-.4-.2-.7-.6-1-1-.3-.5-.5-1-.7-1.6-.1-.6-.2-1.2-.2-1.9s.1-1.4.2-2c.1-.6.4-1.1.7-1.5.3-.5.6-.8 1-1.1.4-.2.8-.4 1.2-.4v-.1c.4.1.8.3 1.2.5zm21.8 16c1.2.7 2.2 1.7 3 3 .8 1.3 1.4 3 1.8 4.8.4 1.9.6 4 .6 6.5 0 2.7-.2 5-.7 7-.4 2-1.1 3.8-2 5.2-.9 1.4-2 2.5-3.3 3.2-1.3.7-2.8 1-4.5 1-1.6 0-3-.3-4.2-1-1.2-.7-2.2-1.8-2.9-3.3-.7-1.5-1.3-3.2-1.7-5.1-.4-1.9-.6-4-.6-6.3 0-2.5.2-4.8.6-6.7.4-2 1.1-3.7 1.9-5.1.9-1.4 2-2.4 3.2-3.2 1.3-.7 2.7-1.1 4.4-1.1v-.1c1.8.2 3.2.5 4.4 1.2zm-2.5 27.2c.5-.4.8-.9 1.1-1.7.3-.7.5-1.5.7-2.3.2-.8.3-1.6.4-2.5v-1c0-.1.1-.3.1-.4v-6.3c0-.4 0-.8-.1-1.1V320c-.1-1-.3-2.1-.5-3-.2-1-.5-1.9-.7-2.8-.3-.9-.7-1.5-1.2-2s-1.1-.7-1.7-.7c-.7 0-1.4.2-1.9.6-.5.4-.9 1-1.2 1.8-.3.8-.5 1.7-.7 2.5-.2.9-.3 1.8-.4 2.7 0 .3-.1.6-.1.9v5.5c0 .5 0 1 .1 1.6.1.5.1 1 .1 1.6.1 1 .2 2.1.4 3 .2 1 .5 1.9.8 2.8.3.9.7 1.5 1.2 2 .5.4 1.2.7 1.9.7v-.1c.7-.1 1.3-.3 1.7-.6zm13.5-18.4v-1.6c0-.5 0-.9-.1-1.2v-.8c0-.3-.1-.5-.3-.6-.2-.2-.4-.2-.6-.3l-1.8-.3V311c.6 0 1.2-.1 1.8-.2.6-.1 1.1-.3 1.7-.6.6-.2 1.1-.5 1.7-.7.6-.3 1.1-.5 1.7-.8h.1l.1-.1h.1l.1-.1c.1 0 .2-.1.3-.1.1 0 .2-.1.3-.1l.2.3v4.9l3.3-4 .1-.1c.1 0 .1-.1.1-.1.1 0 .1 0 .2-.1.1 0 .1-.1.1-.1l.1-.1c.1 0 .1-.1.1-.1l.1-.1c.1 0 .1-.1.1-.1.1 0 .2-.1.2-.1.1 0 .2-.1.3-.1h.7c.1 0 .2 0 .3-.1h.7l.1.1h.6c.3 0 .7.1 1 .3.3.2.6.3.9.6.3.2.6.5.9.7.3.3.5.6.8.9.4.6.7 1.2.9 1.9.2.7.4 1.5.4 2.3.1.8.1 1.7.2 2.5 0 .9.1 1.8.1 2.7v13.2c0 .3 0 .6.1.8v.6c0 .2 0 .4.1.6 0 .2.1.3.1.4.1.1.1.2.2.3.1.1.2.2.4.2.2.1.4.1.6.2l1.4.1v2.4c-.1 0-.1-.1-.2-.1h-.2c-.1 0-.1-.1-.2-.1h-.8c-.1 0-.3-.1-.4-.1h-4.1c-.2 0-.4 0-.6.1h-.7c-.1 0-.1 0-.1.1h-.3v-17.8c0-.7 0-1.4-.1-2.1-.1-.6-.1-1.2-.2-1.6-.1-.5-.2-.9-.3-1.3-.2-.4-.3-.7-.5-1-.2-.3-.4-.5-.6-.7-.2-.2-.4-.4-.7-.5-.3-.1-.5-.2-.8-.2-.3-.1-.6-.1-1-.1-.3 0-.7.1-1 .3-.3.2-.6.4-.9.8-.3.3-.5.6-.7 1-.2.4-.4.8-.5 1.1 0 .1-.1.3-.1.4v.3c0 .1-.1.2-.1.3v15.5c0 .3 0 .6.1.8v.6c0 .2 0 .4.1.6 0 .2.1.3.1.4.1.1.1.2.2.3.1.1.2.2.4.2.2.1.4.1.6.2l1.5.1v2.4c-.1 0-.1-.1-.2-.1h-1.6c-.3 0-.6-.1-.9-.1h-7.4c-.1 0-.1 0-.2.1h-.4v-2.3l1.4-.1c.2 0 .4 0 .5-.1.2-.1.3-.1.4-.2.1-.1.2-.2.2-.3.1-.1.1-.3.2-.4V334c0-.1 0-.3.1-.5v-15.4z" fill="#EA5F3A"/><path fill="#00A651" d="M238.8 312.7h17.6v-7.1h-23.8V339h23.8v-7.2h-17.6z"/><path fill="#00A651" d="M243.6 325.1l-3-7.2h9l3.3 7.2z"/><path fill="#EA5F3A" d="M232.7 325.1l-3.1-7.2h9.1l3.2 7.2z"/><path fill="#00AEEF" d="M140.9 185.2h1.4c-.5-.5-1-.9-1.4-1.4v1.4z"/><path fill="#EA5F3A" d="M339.8 104.9s33.7 8.5 60.7-4.5c3.5 4.3 31.3 33.9 59 44.7-13.1 1.6-41 3-41 3s-23-28.7-58.3-22.3l-20.4-20.9z"/><path fill="#EA5F3A" stroke="#EA5F3A" stroke-width="6.129" stroke-miterlimit="10" d="M457.9 211v-62.9"/><path fill="#EA5F3A" d="M464 223.7a6.7 6.7 0 1 1-13.4 0 6.7 6.7 0 0 1 13.4 0zm-32.5 44.9s7.4 1.6 14.8-3c0 0 .2 2.1-2.1 3.3 1.8-.4 7-1.4 10.6-5 0 0 .9 2.5 0 5.8 2.5-1.5 22.1-28.2 3.1-36.8-.2-.1-.6.2-.7.3-.6.4-1.1.8-1.5 1.3-.9.8-1.7 1.7-2.4 2.6-1 1.4-1.8 2.9-2.3 4.5-.8 2.5-1.5 5.3-1.4 7.9 0 .9.1 1.8 0 2.8-.1 1.4-.4 2.7-.8 4-.5 1.6-1.2 3.1-2.2 4.4-1.3 1.8-3.1 3.2-5.1 4.2-2.7 1.5-5.7 2.4-8.7 3.3-.4.1-1 .4-1.3.4z"/><path fill="#00AEEF" d="M199.3 247.7h13.2V96.5l-13.2-4.4zm151.8-62.5h7.2v3.4l13.2 15.2v-18.5h28.1v42.3l13.2 8.6V150l-13.2-3.8v26.6h-28.1v-35.2l-13.2-3.8v38.9h-14.5c-7.2-13.8-12.4-29.2-14.4-46.4l-9.3-3c-6.4 6.3-28.1 42.1-36.6 95 5.4 2.5 10.5 5 16 6.8-.1-2.6.7-19.3 7.4-40.1h26.9c13.5 22.9 37.4 53.6 74.5 68.9 0 0 19.1 4.2 33.7 4-27.4-12.5-66.4-35.7-90.9-72.7zm-39.5-12.4c2.3-5.5 5-11.1 8.2-16.6 0 0 2.3 6.6 7.3 16.6h-15.5z"/><path fill="#00AEEF" d="M223.4 174.3c28.2 15.7 64 8.1 69.8-8.1 6.7-18.5-20-45.1-59.6-59.4-6.4-2.3-13.2-4.3-19.3-5.7 41 14.8 65.1 38.5 58.7 56.1-5 13.9-32.2 19.7-58.3 11.4 0 0 14.6 47.6 47.7 72.9 26.7 13 80.8 1.7 80.8 1.7-90.6-14.6-119.8-68.9-119.8-68.9zm-104.3-8.6c-1.7 3.3-3.4 6.7-5 10.2-10.4 22.3-18 47.7-18.7 74.9 0 0 11.7-2.9 14.9-7.8 0 0 1.5-23.8 15.5-55.5 1.8-4 3.7-8 5.9-12.2 10.3-19.8 25.5-41.6 47.9-62.1V173H141v10.8c.5.5 1 .9 1.4 1.4h37.2v62.6h13.2v-157l-11.4-5.6s-36.9 31.8-62.3 80.5z"/><path d="M140.9 185.2v-1.4c-2.8-2.8-5.9-5.6-9.3-8.5-2.2 4.2-4.1 8.2-5.9 12.2 5.7 7 10.2 15.5 10 24.7 1.9 20.5-31.6 70.8-135.8 42.9 28.6 17.7 89.2 37.6 138.6 19.7 33.2-13.2 41.2-51.3 3.8-89.6h-1.4zM152.2 0c-14.3 14.9-35.7 26.8-48.3 33.1-.2.1-.3.2-.5.3C62.1 55.5-33.4 96.7 81.5 156c0 0 10.1 5 22.2 12.3 0 0 4.7 2.8 10.4 7.5 1.6-3.5 3.3-6.8 5-10.2-3-2.1-6.1-4.2-9.4-6.3-10.2-6.4-25.8-17-25.8-17S62 126.4 62.2 107.6C60.3 86.9 83 52.3 167.5 63.7 169 61.1 168.8 29 152.2 0z" fill="#2857A7"/></svg>