<?xml version="1.0" encoding="utf-8"?>
<!-- Generator: Adobe Illustrator 16.0.0, SVG Export Plug-In . SVG Version: 6.00 Build 0)  -->
<!DOCTYPE svg PUBLIC "-//W3C//DTD SVG 1.1//EN" "http://www.w3.org/Graphics/SVG/1.1/DTD/svg11.dtd">
<svg version="1.1" id="Layer_1" xmlns="http://www.w3.org/2000/svg" xmlns:xlink="http://www.w3.org/1999/xlink" x="0px" y="0px"
	 width="257.647px" height="82.353px" viewBox="0 0 257.647 82.353" enable-background="new 0 0 257.647 82.353"
	 xml:space="preserve">
<g>
	<path fill="#404F5B" d="M41.269,4.182c-0.611,0-1.219,0.016-1.823,0.045C19.926,5.177,4.391,21.303,4.391,41.06
		c0,0.61,0.017,1.218,0.046,1.821C5.386,62.4,21.513,77.936,41.269,77.936c0.611,0,1.219-0.016,1.823-0.045
		c19.521-0.949,35.055-17.076,35.055-36.831c0-0.612-0.016-1.22-0.045-1.823C77.152,19.715,61.025,4.182,41.269,4.182z
		 M70.728,41.06c0,14.807-10.925,27.061-25.154,29.144c-1.406,0.207-2.842,0.314-4.305,0.314c-14.808,0-27.061-10.927-29.145-25.156
		c-0.205-1.404-0.313-2.84-0.313-4.302c0-14.808,10.926-27.062,25.154-29.146c1.406-0.205,2.842-0.314,4.304-0.314
		c14.807,0,27.062,10.927,29.146,25.155C70.619,38.16,70.728,39.597,70.728,41.06z"/>
	<path fill="#404F5B" d="M22.432,37.905c1.375-8.401,8.363-14.911,16.989-15.558v-5.551C26.72,17.526,16.644,28.055,16.644,40.939
		S26.72,64.352,39.421,65.08v-5.55c-8.8-0.659-15.896-7.421-17.067-16.069h0.02h17.052v-5.556H22.464H22.432z"/>
	<path fill="#404F5B" d="M48.536,58.224c-0.009,0.003-0.018,0.008-0.025,0.011V16.797h-5.553v45.112v3.171
		c2.079-0.119,4.087-0.502,5.991-1.112c6.825-2.19,12.329-7.329,15.011-13.918h-6.141C55.754,53.726,52.48,56.628,48.536,58.224z"/>
	<path fill="#404F5B" d="M83.238,39.295c0.863,0.934,1.896,1.668,3.098,2.204c1.201,0.537,2.547,0.805,4.036,0.805
		s2.834-0.268,4.036-0.805c1.2-0.536,2.229-1.271,3.082-2.204c0.854-0.933,1.514-2.035,1.981-3.307
		c0.466-1.27,0.699-2.641,0.699-4.109c0-1.47-0.233-2.84-0.699-4.111c-0.468-1.27-1.128-2.372-1.981-3.306s-1.882-1.668-3.082-2.204
		c-1.202-0.536-2.547-0.805-4.036-0.805s-2.835,0.269-4.036,0.805c-1.202,0.536-2.234,1.271-3.098,2.204
		c-0.864,0.934-1.529,2.036-1.996,3.306c-0.467,1.271-0.699,2.642-0.699,4.111c0,1.469,0.232,2.84,0.699,4.109
		C81.708,37.26,82.374,38.362,83.238,39.295z M94.571,38.596c-0.993,1.578-2.393,2.367-4.199,2.367
		c-1.808,0-3.202-0.789-4.186-2.367c-0.982-1.58-1.474-3.817-1.474-6.717s0.491-5.139,1.474-6.717
		c0.983-1.579,2.378-2.368,4.186-2.368c1.807,0,3.206,0.789,4.199,2.368c0.993,1.578,1.489,3.817,1.489,6.717
		S95.564,37.016,94.571,38.596z"/>
	<path fill="#404F5B" d="M103.432,23.762c0.248,0.547,0.372,1.266,0.372,2.16v7.207c0,5.918,2.681,8.877,8.042,8.877
		c1.449,0,2.676-0.199,3.679-0.596c1.003-0.398,1.817-0.979,2.442-1.743s1.077-1.692,1.355-2.784
		c0.277-1.093,0.417-2.344,0.417-3.754v-11.08h-1.489v11.08c0,2.602-0.462,4.508-1.385,5.72c-0.924,1.211-2.397,1.815-4.424,1.815
		c-1.568,0-2.745-0.59-3.529-1.771c-0.784-1.181-1.187-2.804-1.206-4.869l-0.03-8.102c0-0.734-0.04-1.351-0.118-1.848
		c-0.08-0.496-0.224-0.894-0.433-1.191c-0.208-0.298-0.486-0.511-0.834-0.641c-0.348-0.129-0.779-0.193-1.296-0.193h-3.276v0.895
		C102.613,22.943,103.184,23.216,103.432,23.762z"/>
	<path fill="#404F5B" d="M123.477,22.258c-0.327,0.139-0.586,0.318-0.774,0.536c-0.188,0.219-0.317,0.472-0.387,0.76
		c-0.07,0.288-0.104,0.581-0.104,0.878v2.532h0.894c0-1.33,0.308-2.259,0.923-2.785c0.616-0.526,1.449-0.789,2.502-0.789h2.115
		v18.318h3.87V23.39h6.225v-1.341h-13.997C124.226,22.049,123.805,22.119,123.477,22.258z"/>
	<path fill="#404F5B" d="M142.402,41.275c0.636,0.309,1.355,0.541,2.16,0.701c0.804,0.158,1.612,0.238,2.427,0.238
		c2.403,0,4.25-0.498,5.54-1.49c1.291-0.992,1.937-2.342,1.937-4.051c0-1.092-0.312-2.02-0.938-2.785
		c-0.625-0.764-1.613-1.544-2.963-2.338l-3.664-2.174c-0.477-0.278-0.904-0.546-1.281-0.805c-0.377-0.258-0.699-0.526-0.968-0.805
		c-0.268-0.277-0.477-0.58-0.625-0.908c-0.149-0.327-0.224-0.699-0.224-1.117c0-0.893,0.311-1.598,0.932-2.114
		s1.465-0.774,2.53-0.774c1.499,0,2.713,0.438,3.64,1.311c0.927,0.875,1.559,2.344,1.894,4.408h0.894v-3.484
		c0-0.557-0.198-1.058-0.596-1.505c-0.397-0.446-0.913-0.823-1.549-1.132c-0.636-0.308-1.355-0.541-2.159-0.7
		c-0.805-0.158-1.613-0.237-2.428-0.237c-2.045,0-3.669,0.457-4.87,1.369c-1.201,0.914-1.802,2.156-1.802,3.724
		c0,1.093,0.277,2.056,0.834,2.89c0.556,0.834,1.509,1.648,2.859,2.442l3.664,2.203c0.953,0.577,1.702,1.147,2.248,1.713
		c0.547,0.565,0.819,1.276,0.819,2.13c0,0.953-0.341,1.674-1.021,2.16s-1.584,0.729-2.708,0.729c-1.658,0-2.966-0.436-3.922-1.311
		c-0.958-0.873-1.595-2.342-1.91-4.408h-0.894v3.486c0,0.555,0.198,1.057,0.596,1.504C141.251,40.591,141.767,40.968,142.402,41.275
		z"/>
	<path fill="#404F5B" d="M159.365,39.295c0.864,0.934,1.896,1.668,3.098,2.204c1.201,0.537,2.547,0.805,4.036,0.805
		s2.833-0.268,4.036-0.805c1.201-0.536,2.229-1.271,3.083-2.204c0.853-0.933,1.514-2.035,1.98-3.307c0.467-1.27,0.7-2.641,0.7-4.109
		c0-1.47-0.233-2.84-0.7-4.111c-0.467-1.27-1.128-2.372-1.98-3.306c-0.854-0.934-1.882-1.668-3.083-2.204
		c-1.203-0.536-2.547-0.805-4.036-0.805s-2.835,0.269-4.036,0.805s-2.233,1.271-3.098,2.204s-1.529,2.036-1.995,3.306
		c-0.467,1.271-0.7,2.642-0.7,4.111c0,1.469,0.233,2.84,0.7,4.109C157.836,37.26,158.501,38.362,159.365,39.295z M170.699,38.596
		c-0.993,1.578-2.395,2.367-4.2,2.367c-1.808,0-3.202-0.789-4.185-2.367c-0.983-1.58-1.475-3.817-1.475-6.717
		s0.491-5.139,1.475-6.717c0.982-1.579,2.377-2.368,4.185-2.368c1.806,0,3.207,0.789,4.2,2.368c0.992,1.578,1.489,3.817,1.489,6.717
		S171.691,37.016,170.699,38.596z"/>
	<path fill="#404F5B" d="M194.379,33.129c0,2.602-0.462,4.508-1.386,5.72c-0.924,1.211-2.397,1.815-4.423,1.815
		c-1.568,0-2.745-0.59-3.53-1.771c-0.783-1.181-1.187-2.804-1.206-4.869l-0.029-8.102c0-0.734-0.04-1.351-0.12-1.848
		c-0.079-0.496-0.223-0.894-0.432-1.191c-0.208-0.298-0.486-0.511-0.834-0.641c-0.347-0.129-0.78-0.193-1.296-0.193h-3.276v0.895
		c0.895,0,1.465,0.272,1.713,0.818c0.248,0.547,0.373,1.266,0.373,2.16v7.207c0,5.918,2.681,8.877,8.042,8.877
		c1.449,0,2.676-0.199,3.678-0.596c1.003-0.398,1.817-0.979,2.442-1.743c0.626-0.765,1.076-1.692,1.355-2.784
		c0.278-1.093,0.417-2.344,0.417-3.754v-11.08h-1.488V33.129z"/>
	<path fill="#404F5B" d="M200.319,23.762c0.247,0.547,0.373,1.266,0.373,2.16v15.786h3.902v-8.995h1.191l2.978,4.975
		c0.496,0.813,0.979,1.499,1.445,2.055c0.466,0.556,0.932,1.003,1.398,1.34c0.467,0.338,0.944,0.576,1.43,0.715
		c0.487,0.139,0.987,0.209,1.505,0.209c0.378,0,0.77-0.029,1.177-0.09c0.406-0.059,0.69-0.129,0.849-0.208v-0.745
		c-0.219-0.039-0.461-0.114-0.729-0.223c-0.269-0.109-0.562-0.283-0.879-0.521c-0.318-0.238-0.649-0.561-0.997-0.969
		c-0.349-0.406-0.712-0.928-1.089-1.562l-3.127-5.213c0.556-0.139,1.122-0.328,1.699-0.566c0.575-0.238,1.097-0.551,1.562-0.938
		c0.467-0.387,0.844-0.864,1.132-1.429c0.288-0.566,0.432-1.236,0.432-2.011c0-0.813-0.133-1.515-0.401-2.101
		c-0.268-0.586-0.62-1.082-1.058-1.489s-0.938-0.735-1.505-0.982c-0.564-0.249-1.146-0.442-1.741-0.581s-1.183-0.228-1.758-0.268
		s-1.102-0.061-1.578-0.061h-8.221v0.895h0.297C199.502,22.943,200.071,23.216,200.319,23.762z M206.382,31.521h-1.787v-8.072
		c0.178-0.02,0.377-0.049,0.596-0.09c0.178-0.039,0.386-0.068,0.625-0.089c0.238-0.02,0.477-0.03,0.715-0.03
		c0.436,0,0.883,0.07,1.339,0.209c0.458,0.139,0.875,0.373,1.252,0.7s0.685,0.754,0.924,1.28c0.237,0.527,0.356,1.177,0.356,1.951
		s-0.119,1.43-0.356,1.965c-0.239,0.537-0.551,0.965-0.938,1.281c-0.388,0.318-0.819,0.547-1.296,0.686
		C207.334,31.452,206.857,31.521,206.382,31.521z"/>
	<path fill="#404F5B" d="M219.874,39.385c0.834,0.913,1.861,1.627,3.082,2.145c1.222,0.516,2.615,0.774,4.187,0.774
		c2.083,0,3.801-0.388,5.152-1.161c1.351-0.775,2.49-1.986,3.425-3.635l-1.042-0.804c-0.716,1.39-1.659,2.446-2.831,3.172
		c-1.171,0.726-2.442,1.087-3.812,1.087c-1.191,0-2.198-0.242-3.021-0.729c-0.825-0.487-1.501-1.136-2.026-1.95
		c-0.526-0.814-0.908-1.753-1.147-2.815c-0.238-1.062-0.356-2.159-0.356-3.292c0-1.806,0.168-3.311,0.507-4.512
		c0.337-1.201,0.804-2.165,1.399-2.89c0.595-0.724,1.291-1.235,2.084-1.534c0.795-0.297,1.649-0.446,2.562-0.446
		c1.649,0,2.975,0.481,3.977,1.444c1.003,0.964,1.692,2.349,2.07,4.155h0.894c0-0.874-0.029-1.718-0.09-2.532
		c-0.06-0.814-0.287-1.479-0.685-1.995c-0.555-0.636-1.404-1.196-2.547-1.683c-1.142-0.486-2.646-0.73-4.511-0.73
		c-1.411,0-2.717,0.279-3.917,0.834c-1.203,0.557-2.24,1.316-3.113,2.279c-0.874,0.964-1.559,2.095-2.055,3.396
		c-0.497,1.301-0.745,2.705-0.745,4.214c0,1.431,0.219,2.762,0.654,3.992C218.403,37.398,219.04,38.472,219.874,39.385z"/>
	<path fill="#404F5B" d="M238.892,23.762c0.248,0.547,0.372,1.266,0.372,2.16v15.786h11.021c0.814,0,1.394-0.188,1.741-0.565
		c0.348-0.378,0.631-0.885,0.85-1.52l0.862-2.354l-0.804-0.298c-0.517,1.291-1.156,2.179-1.92,2.665
		c-0.765,0.488-1.693,0.73-2.786,0.73h-5.093v-8.191h7.745v-1.34h-7.745V23.39h4.795c1.192,0,2.11,0.278,2.755,0.835
		c0.646,0.555,0.969,1.469,0.969,2.739h0.894v-2.532c0-0.297-0.035-0.59-0.104-0.878s-0.198-0.541-0.386-0.76
		c-0.189-0.218-0.447-0.397-0.776-0.536c-0.325-0.139-0.748-0.209-1.265-0.209h-13.135v0.895h0.298
		C238.073,22.943,238.644,23.216,238.892,23.762z"/>
	<path fill="#404F5B" d="M108.076,58.697c-0.584,0.371-1.293,0.557-2.128,0.557h-3.891v-6.256h5.916v-1.025h-5.916v-5.688h3.664
		c0.909,0,1.611,0.212,2.104,0.637c0.493,0.424,0.74,1.123,0.74,2.093h0.683v-1.934c0-0.227-0.026-0.45-0.079-0.671
		c-0.054-0.22-0.152-0.414-0.296-0.58c-0.145-0.167-0.342-0.303-0.593-0.41c-0.249-0.104-0.572-0.159-0.966-0.159H97.28v0.684h0.228
		c0.683,0,1.118,0.208,1.308,0.624c0.189,0.418,0.285,0.969,0.285,1.65v12.059h8.418c0.622,0,1.065-0.144,1.331-0.432
		c0.266-0.287,0.481-0.674,0.648-1.16l0.66-1.798l-0.614-0.228C109.149,57.646,108.66,58.325,108.076,58.697z"/>
	<path fill="#404F5B" d="M124.139,58.971c-0.266-0.236-0.523-0.497-0.773-0.785c-0.25-0.289-0.467-0.577-0.648-0.865l-3.572-5.483
		l5.21-6.576h-1.479l-4.392,5.552l-1.979-3.048c-0.182-0.289-0.398-0.581-0.648-0.876c-0.251-0.297-0.531-0.566-0.842-0.809
		s-0.652-0.439-1.024-0.592c-0.372-0.151-0.77-0.228-1.194-0.228h-2.503v0.456c0.259,0.03,0.527,0.121,0.809,0.273
		c0.28,0.151,0.553,0.345,0.818,0.578c0.266,0.236,0.523,0.498,0.773,0.785c0.251,0.29,0.467,0.578,0.649,0.865l3.23,4.982
		l-5.598,7.076h1.479l4.801-6.051l2.298,3.549c0.183,0.289,0.398,0.58,0.648,0.875c0.251,0.297,0.531,0.566,0.842,0.809
		c0.312,0.243,0.652,0.44,1.024,0.592c0.371,0.152,0.77,0.227,1.194,0.227h2.503v-0.454c-0.258-0.03-0.527-0.121-0.808-0.272
		C124.677,59.398,124.404,59.205,124.139,58.971z"/>
	<path fill="#404F5B" d="M136.912,46.797c-0.349-0.341-0.739-0.609-1.172-0.807s-0.876-0.354-1.331-0.469
		c-0.455-0.113-0.902-0.185-1.342-0.215c-0.44-0.029-0.827-0.046-1.161-0.046h-6.253v0.684h0.227c0.683,0,1.119,0.208,1.309,0.624
		c0.189,0.418,0.284,0.969,0.284,1.65v12.059h2.955v-6.074h2.162c0.228,0,0.52-0.014,0.876-0.045s0.735-0.098,1.138-0.205
		c0.401-0.106,0.808-0.258,1.218-0.455c0.409-0.197,0.78-0.459,1.114-0.785s0.604-0.725,0.808-1.194
		c0.205-0.47,0.308-1.031,0.308-1.685c0-0.697-0.103-1.293-0.308-1.785C137.538,47.556,137.261,47.139,136.912,46.797z
		 M132.919,53.134c-0.372,0.106-0.747,0.158-1.126,0.158h-1.366V46.33c0.137-0.014,0.289-0.037,0.456-0.066
		c0.136-0.031,0.296-0.055,0.478-0.068c0.182-0.017,0.364-0.024,0.546-0.024c0.364,0,0.721,0.055,1.069,0.159
		c0.349,0.105,0.663,0.297,0.944,0.57c0.28,0.272,0.508,0.637,0.683,1.091c0.174,0.456,0.262,1.032,0.262,1.729
		c0,0.698-0.088,1.277-0.262,1.74c-0.175,0.464-0.405,0.83-0.694,1.104C133.62,52.838,133.29,53.028,132.919,53.134z"/>
	<path fill="#404F5B" d="M149.574,58.697c-0.584,0.371-1.294,0.557-2.128,0.557h-3.891v-6.256h5.916v-1.025h-5.916v-5.688h3.663
		c0.91,0,1.612,0.212,2.104,0.637c0.492,0.424,0.739,1.123,0.739,2.093h0.683v-1.934c0-0.227-0.026-0.45-0.079-0.671
		c-0.054-0.22-0.151-0.414-0.296-0.58c-0.145-0.167-0.341-0.303-0.592-0.41c-0.25-0.104-0.572-0.159-0.967-0.159h-10.034v0.684
		h0.228c0.683,0,1.119,0.208,1.309,0.624c0.189,0.418,0.284,0.969,0.284,1.65v12.059h8.419c0.622,0,1.065-0.144,1.331-0.432
		c0.265-0.287,0.481-0.674,0.648-1.16l0.659-1.798l-0.614-0.228C150.646,57.646,150.157,58.325,149.574,58.697z"/>
	<path fill="#404F5B" d="M165.148,59.141c-0.243-0.182-0.497-0.429-0.763-0.739c-0.265-0.311-0.542-0.709-0.83-1.195l-2.39-3.981
		c0.425-0.105,0.857-0.25,1.298-0.432c0.439-0.184,0.838-0.422,1.194-0.718c0.355-0.296,0.645-0.659,0.864-1.091
		c0.22-0.434,0.33-0.945,0.33-1.537c0-0.622-0.103-1.156-0.308-1.604c-0.204-0.447-0.474-0.826-0.808-1.139
		c-0.333-0.311-0.716-0.56-1.148-0.75c-0.433-0.189-0.876-0.338-1.331-0.443s-0.903-0.175-1.343-0.205
		c-0.44-0.029-0.842-0.046-1.205-0.046h-6.28v0.684h0.228c0.683,0,1.118,0.208,1.308,0.624c0.189,0.418,0.285,0.969,0.285,1.65
		v12.059h2.98v-6.871h0.91l2.275,3.8c0.379,0.622,0.747,1.146,1.103,1.569c0.356,0.426,0.713,0.768,1.07,1.025
		c0.355,0.258,0.72,0.439,1.092,0.545c0.372,0.106,0.754,0.16,1.149,0.16c0.288,0,0.587-0.023,0.898-0.068
		c0.311-0.045,0.527-0.099,0.648-0.16V59.71c-0.167-0.03-0.353-0.088-0.558-0.171C165.614,59.455,165.391,59.322,165.148,59.141z
		 M158.596,52.496h-1.365V46.33c0.136-0.014,0.288-0.037,0.455-0.066c0.137-0.031,0.296-0.055,0.478-0.068
		c0.182-0.017,0.364-0.024,0.547-0.024c0.333,0,0.674,0.055,1.023,0.159c0.349,0.105,0.667,0.285,0.955,0.535
		s0.523,0.576,0.706,0.979c0.182,0.402,0.272,0.899,0.272,1.489c0,0.592-0.091,1.093-0.272,1.503
		c-0.183,0.41-0.421,0.736-0.718,0.979c-0.296,0.242-0.625,0.417-0.989,0.521C159.324,52.443,158.959,52.496,158.596,52.496z"/>
	<path fill="#404F5B" d="M167.435,45.42c-0.251,0.107-0.447,0.243-0.592,0.41c-0.145,0.166-0.242,0.36-0.296,0.58
		c-0.053,0.221-0.079,0.444-0.079,0.671v1.934h0.683c0-1.016,0.234-1.725,0.705-2.126c0.47-0.402,1.106-0.604,1.911-0.604h1.616
		v13.992h2.957V46.285h4.755v-1.024H168.4C168.007,45.261,167.686,45.315,167.435,45.42z"/>
	<path fill="#404F5B" d="M188.129,52.52l-2.798-1.66c-0.364-0.214-0.691-0.418-0.979-0.616c-0.289-0.196-0.536-0.401-0.739-0.612
		c-0.206-0.214-0.365-0.444-0.479-0.695c-0.114-0.25-0.172-0.534-0.172-0.853c0-0.684,0.238-1.222,0.713-1.616
		s1.119-0.59,1.934-0.59c1.145,0,2.07,0.332,2.779,0.998c0.708,0.67,1.19,1.792,1.446,3.368h0.683v-2.661
		c0-0.425-0.151-0.808-0.456-1.15c-0.303-0.341-0.697-0.629-1.183-0.863c-0.485-0.236-1.035-0.413-1.648-0.534
		c-0.614-0.122-1.233-0.183-1.854-0.183c-1.563,0-2.803,0.35-3.722,1.047c-0.917,0.697-1.375,1.646-1.375,2.845
		c0,0.834,0.212,1.569,0.636,2.206c0.426,0.638,1.153,1.26,2.186,1.866l2.799,1.685c0.728,0.439,1.3,0.875,1.718,1.307
		c0.417,0.434,0.626,0.976,0.626,1.627c0,0.729-0.262,1.278-0.781,1.65c-0.52,0.371-1.21,0.557-2.069,0.557
		c-1.266,0-2.266-0.333-2.996-1c-0.73-0.668-1.217-1.791-1.457-3.368h-0.684v2.663c0,0.424,0.151,0.807,0.455,1.148
		c0.303,0.341,0.697,0.629,1.185,0.865c0.485,0.234,1.034,0.412,1.648,0.533s1.232,0.182,1.854,0.182
		c1.835,0,3.246-0.379,4.232-1.137c0.985-0.758,1.479-1.789,1.479-3.094c0-0.834-0.238-1.544-0.716-2.129
		C189.915,53.721,189.16,53.125,188.129,52.52z"/>
	<path fill="#404F5B" d="M202.758,48.219c0-0.561-0.03-1.031-0.091-1.41s-0.17-0.684-0.33-0.91c-0.158-0.227-0.371-0.391-0.638-0.49
		c-0.265-0.098-0.594-0.147-0.989-0.147h-2.729v0.684h0.228c0.684,0,1.119,0.208,1.309,0.624c0.188,0.418,0.284,0.969,0.284,1.65
		v12.059h10.808v-1.023h-7.851V48.219z"/>
	<path fill="#404F5B" d="M209.322,45.42c-0.25,0.107-0.447,0.243-0.591,0.41c-0.145,0.166-0.243,0.36-0.297,0.58
		c-0.053,0.221-0.079,0.444-0.079,0.671v1.934h0.683c0-1.016,0.235-1.725,0.706-2.126c0.47-0.402,1.106-0.604,1.91-0.604h1.616
		v13.992h2.958V46.285h4.756v-1.024H210.29C209.896,45.261,209.572,45.315,209.322,45.42z"/>
	<path fill="#404F5B" d="M236.409,49.572c-0.394-0.918-0.985-1.694-1.774-2.332c-0.788-0.637-1.767-1.125-2.936-1.468
		c-1.167-0.341-2.532-0.512-4.094-0.512h-6.19v0.684h0.229c0.683,0,1.118,0.208,1.309,0.624c0.189,0.418,0.284,0.969,0.284,1.65
		v12.059h4.959c1.427,0,2.689-0.186,3.789-0.557c1.1-0.372,2.021-0.891,2.766-1.559c0.742-0.667,1.304-1.468,1.683-2.4
		c0.379-0.934,0.569-1.961,0.569-3.082C237.002,51.526,236.804,50.491,236.409,49.572z M233.18,55.523
		c-0.273,0.819-0.653,1.512-1.138,2.081c-0.486,0.569-1.062,1.005-1.729,1.309c-0.668,0.304-1.396,0.454-2.185,0.454h-0.229
		c-0.484,0-0.888-0.022-1.205-0.068c-0.182-0.029-0.349-0.06-0.5-0.09V46.33c0.151-0.014,0.318-0.037,0.5-0.066
		c0.167-0.031,0.353-0.055,0.558-0.068c0.204-0.017,0.422-0.024,0.647-0.024h0.184c0.819,0,1.565,0.155,2.241,0.466
		c0.674,0.312,1.254,0.756,1.74,1.332c0.485,0.577,0.86,1.27,1.126,2.082c0.266,0.811,0.398,1.719,0.398,2.719
		C233.589,53.787,233.452,54.703,233.18,55.523z"/>
	<path fill="#404F5B" d="M236.855,58.931v1.298h16.883V58.46h-16.513C237.106,58.62,236.985,58.779,236.855,58.931z"/>
	<rect x="80.542" y="58.46" fill="#404F5B" width="16.511" height="1.769"/>
</g>
</svg>
